<svg width="512" height="512" viewBox="0 0 512 512" fill="none" xmlns="http://www.w3.org/2000/svg">
    <!-- Base Building Shape -->
    <path d="M256 40L472 168V472H40V168L256 40Z" fill="#1E40AF"/>
    
    <!-- Modern Window Elements -->
    <rect x="96" y="216" width="80" height="120" rx="4" fill="#1E293B"/>
    <rect x="216" y="216" width="80" height="120" rx="4" fill="#1E293B"/>
    <rect x="336" y="216" width="80" height="120" rx="4" fill="#1E293B"/>
    
    <!-- Door -->
    <rect x="216" y="376" width="80" height="96" rx="4" fill="#1E293B"/>
    
    <!-- Roof Accent -->
    <path d="M256 40L354 96L256 152L158 96L256 40Z" fill="#172554"/>
    
    <!-- Letter R for REAX -->
    <path d="M236 280L276 280C289.25 280 300 269.25 300 256C300 242.75 289.25 232 276 232L236 232L236 280Z" fill="#2563EB"/>
    <path d="M276 232C289.25 232 300 242.75 300 256L260 296L236 280L236 232L276 232Z" fill="#3B82F6"/>
</svg>
