<svg width="512" height="512" viewBox="0 0 512 512" fill="none" xmlns="http://www.w3.org/2000/svg">
    <!-- Background Circle -->
    <circle cx="256" cy="256" r="256" fill="white"/>
    
    <!-- Base Building Shape -->
    <path d="M256 80L432 188V452H80V188L256 80Z" fill="#2563EB"/>
    
    <!-- Modern Window Elements -->
    <rect x="126" y="236" width="70" height="100" rx="4" fill="#F8FAFC"/>
    <rect x="221" y="236" width="70" height="100" rx="4" fill="#F8FAFC"/>
    <rect x="316" y="236" width="70" height="100" rx="4" fill="#F8FAFC"/>
    
    <!-- Door -->
    <rect x="221" y="366" width="70" height="86" rx="4" fill="#F8FAFC"/>
    
    <!-- Roof Accent -->
    <path d="M256 80L344 126L256 172L168 126L256 80Z" fill="#1D4ED8"/>
    
    <!-- Letter R for REAX -->
    <path d="M241 290L276 290C287.25 290 296 281.25 296 270C296 258.75 287.25 250 276 250L241 250L241 290Z" fill="#1D4ED8"/>
    <path d="M276 250C287.25 250 296 258.75 296 270L261 301L241 290L241 250L276 250Z" fill="#1E40AF"/>
</svg>
